<?xml version="1.0" standalone="no"?>
<svg xmlns="http://www.w3.org/2000/svg" viewBox="0 -600 1440 2800" xmlns:xlink="http://www.w3.org/1999/xlink">

  <path id="wave" fill="#FFFFFF" fill-opacity="1"
    d="M0,224L34.3,192C68.6,160,137,96,206,69.3C274.3,43,343,53,411,74.7C480,96,549,128,617,149.3C685.7,171,754,181,823,170.7C891.4,160,960,128,1029,112C1097.1,
    96,1166,96,1234,122.7C1302.9,149,1371,203,1406,229.3L1440,256L1440,320L1405.7,320C1371.4,320,1303,320,1234,320C1165.7,320,1097,320,1029,320C960,320,891,320,823,320C754.3,
    320,686,320,617,320C548.6,320,480,320,411,320C342.9,320,274,320,206,320C137.1,320,69,320,34,320L0,320Z">

    <animateTransform attributeName="transform"
                          attributeType="XML"
                          type="translate"
                          from="0"
                          to="1400"
                          dur="5s"
                          repeatCount="indefinite"/>
  </path>

  <path id="wave" fill="#FFFFFF" fill-opacity="1"
    d="M0,224L34.3,192C68.6,160,137,96,206,69.3C274.3,43,343,53,411,74.7C480,96,549,128,617,149.3C685.7,171,754,181,823,170.7C891.4,160,960,128,1029,112C1097.1,
    96,1166,96,1234,122.7C1302.9,149,1371,203,1406,229.3L1440,256L1440,320L1405.7,320C1371.4,320,1303,320,1234,320C1165.7,320,1097,320,1029,320C960,320,891,320,823,320C754.3,
    320,686,320,617,320C548.6,320,480,320,411,320C342.9,320,274,320,206,320C137.1,320,69,320,34,320L0,320Z">

    <animateTransform attributeName="transform"
                          attributeType="XML"
                          type="translate"
                          from="-1400"
                          to="0"
                          dur="5s"
                          repeatCount="indefinite"/>
  </path>

  <rect id="orange-circle" x="0" y="310" width="1440" height="6000" style="fill:#FFFFFF;stroke:#FFFFFF;" />
</svg>
